REM DIRINDEX 1\2,1\3,1\4,1\5
REM DIRNAME folder01,folder02,folder03,folder04,folder05
TITLE ""
FILE "1Q_t_0682-0691.mp3" MP3
  TRACK 01 AUDIO
    TITLE "3:cjc004_2948"
    INDEX 01 00:00:00
  TRACK 02 AUDIO
    TITLE "0:"
    INDEX 01 00:01:07
  TRACK 03 AUDIO
    TITLE "4:cjc004_2949"
    INDEX 01 00:01:34
  TRACK 04 AUDIO
    TITLE "0:"
    INDEX 01 00:02:40
  TRACK 05 AUDIO
    TITLE "5:cjc004_2950"
    INDEX 01 00:02:71
  TRACK 06 AUDIO
    TITLE "0:"
    INDEX 01 00:07:60
  TRACK 07 AUDIO
    TITLE "3:cjc004_2951"
    INDEX 01 00:08:40
  TRACK 08 AUDIO
    TITLE "0:"
    INDEX 01 00:09:51
  TRACK 09 AUDIO
    TITLE "4:cjc004_2952"
    INDEX 01 00:10:06
  TRACK 10 AUDIO
    TITLE "0:"
    INDEX 01 00:11:31
  TRACK 11 AUDIO
    TITLE "5:cjc004_2953"
    INDEX 01 00:11:60
  TRACK 12 AUDIO
    TITLE "0:"
    INDEX 01 00:15:36
  TRACK 13 AUDIO
    TITLE "3:cjc004_2954"
    INDEX 01 00:16:20
  TRACK 14 AUDIO
    TITLE "0:"
    INDEX 01 00:17:37
  TRACK 15 AUDIO
    TITLE "4:cjc004_2955"
    INDEX 01 00:17:63
  TRACK 16 AUDIO
    TITLE "0:"
    INDEX 01 00:19:11
  TRACK 17 AUDIO
    TITLE "5:cjc004_2956"
    INDEX 01 00:19:36
  TRACK 18 AUDIO
    TITLE "0:"
    INDEX 01 00:22:72
  TRACK 19 AUDIO
    TITLE "3:cjc004_2957"
    INDEX 01 00:23:48
  TRACK 20 AUDIO
    TITLE "0:"
    INDEX 01 00:24:74
  TRACK 21 AUDIO
    TITLE "4:cjc004_2958"
    INDEX 01 00:25:23
  TRACK 22 AUDIO
    TITLE "0:"
    INDEX 01 00:26:44
  TRACK 23 AUDIO
    TITLE "5:cjc004_2959"
    INDEX 01 00:26:62
  TRACK 24 AUDIO
    TITLE "0:"
    INDEX 01 00:31:31
  TRACK 25 AUDIO
    TITLE "3:cjc004_2960"
    INDEX 01 00:32:05
  TRACK 26 AUDIO
    TITLE "0:"
    INDEX 01 00:33:01
  TRACK 27 AUDIO
    TITLE "4:cjc004_2961"
    INDEX 01 00:33:28
  TRACK 28 AUDIO
    TITLE "0:"
    INDEX 01 00:34:47
  TRACK 29 AUDIO
    TITLE "5:cjc004_2962"
    INDEX 01 00:34:69
  TRACK 30 AUDIO
    TITLE "0:"
    INDEX 01 00:39:60
  TRACK 31 AUDIO
    TITLE "3:cjc004_2963"
    INDEX 01 00:40:38
  TRACK 32 AUDIO
    TITLE "0:"
    INDEX 01 00:41:59
  TRACK 33 AUDIO
    TITLE "4:cjc004_2964"
    INDEX 01 00:42:10
  TRACK 34 AUDIO
    TITLE "0:"
    INDEX 01 00:43:25
  TRACK 35 AUDIO
    TITLE "5:cjc004_2965"
    INDEX 01 00:43:54
  TRACK 36 AUDIO
    TITLE "0:"
    INDEX 01 00:47:05
  TRACK 37 AUDIO
    TITLE "3:cjc004_2966"
    INDEX 01 00:47:54
  TRACK 38 AUDIO
    TITLE "0:"
    INDEX 01 00:49:10
  TRACK 39 AUDIO
    TITLE "4:cjc004_2967"
    INDEX 01 00:49:43
  TRACK 40 AUDIO
    TITLE "0:"
    INDEX 01 00:51:11
  TRACK 41 AUDIO
    TITLE "5:cjc004_2968"
    INDEX 01 00:51:42
  TRACK 42 AUDIO
    TITLE "0:"
    INDEX 01 00:55:53
  TRACK 43 AUDIO
    TITLE "3:cjc004_2969"
    INDEX 01 00:56:27
  TRACK 44 AUDIO
    TITLE "0:"
    INDEX 01 00:57:50
  TRACK 45 AUDIO
    TITLE "4:cjc004_2970"
    INDEX 01 00:57:68
  TRACK 46 AUDIO
    TITLE "0:"
    INDEX 01 00:59:24
  TRACK 47 AUDIO
    TITLE "5:cjc004_2971"
    INDEX 01 00:59:53
  TRACK 48 AUDIO
    TITLE "0:"
    INDEX 01 01:05:50
  TRACK 49 AUDIO
    TITLE "3:cjc004_2972"
    INDEX 01 01:06:30
  TRACK 50 AUDIO
    TITLE "0:"
    INDEX 01 01:07:72
  TRACK 51 AUDIO
    TITLE "4:cjc004_2973"
    INDEX 01 01:08:29
  TRACK 52 AUDIO
    TITLE "0:"
    INDEX 01 01:09:59
  TRACK 53 AUDIO
    TITLE "5:cjc004_2974"
    INDEX 01 01:10:12
  TRACK 54 AUDIO
    TITLE "0:"
    INDEX 01 01:15:21
  TRACK 55 AUDIO
    TITLE "3:cjc004_2975"
    INDEX 01 01:15:72
  TRACK 56 AUDIO
    TITLE "0:"
    INDEX 01 01:17:10
  TRACK 57 AUDIO
    TITLE "4:cjc004_2976"
    INDEX 01 01:17:35
  TRACK 58 AUDIO
    TITLE "0:"
    INDEX 01 01:18:45
  TRACK 59 AUDIO
    TITLE "5:cjc004_2977"
    INDEX 01 01:19:03
  TRACK 60 AUDIO
    TITLE "0:"
    INDEX 01 01:23:67
